# xmcd
#
# Track frame offsets:
#	150
#	8613
#	19274
#	31465
#	42790
#	61494
#	77922
#	88754
#	100712
#	113694
#	125219
#	137530
#	151495
#	162796
#	172977
#
# Disc length: 2475 seconds
#
# Revision: 0
# Processed by: cddbd v1.5.2PL0 Copyright (c) Steve Scherf et al.
# Submitted via: audiograbber 1.83.01
#
DISCID=b609a90f
DTITLE=Ursprung Buam - Ursprung Buam [CD3]
DYEAR=1900
DGENRE=
TTITLE0=A Riesenstimmung aus dem Zillertal - Ursprung Buam
TTITLE1='s kann scho wieder mal heiter werden - Ursprung Buam
TTITLE2=A Diandl zan gearn hob'n - Ursprung Buam
TTITLE3=Zillertaler Stimmungslied - Ursprung Buam
TTITLE4=Hoam noch Tirol - Ursprung Buam
TTITLE5=Ja Hoi - Ursprung Buam
TTITLE6=Klangwalzer - Ursprung Buam
TTITLE7=I woass net ein, i woass net aus - Ursprung Buam
TTITLE8=Zillertaler Bravourjodler - Ursprung Buam
TTITLE9=Landlerisch Aufg'Spielt - Ursprung Buam
TTITLE10='s Musizieren hat a Schneid - Ursprung Buam
TTITLE11=Schneiderhäusl-Boarischer - Ursprung Buam
TTITLE12=Zichn- Boarischer - Ursprung Buam
TTITLE13=Mir hent vom Zillertal - Ursprung Buam
TTITLE14=Wia die Schwalben - Ursprung Buam
EXTD=
EXTT0=
EXTT1=
EXTT2=
EXTT3=
EXTT4=
EXTT5=
EXTT6=
EXTT7=
EXTT8=
EXTT9=
EXTT10=
EXTT11=
EXTT12=
EXTT13=
EXTT14=
PLAYORDER=
